<svg xmlns="http://www.w3.org/2000/svg" width="18" height="18" viewBox="0 0 18 18">
  <defs>
    <linearGradient id="f6c323fa-1a67-41c7-9219-e3d920812d88" x1="9.103" y1="761.783" x2="9.103" y2="752.632" gradientTransform="translate(0 -748)" gradientUnits="userSpaceOnUse">
      <stop offset="0" stop-color="#0078d4"/>
      <stop offset="1" stop-color="#5ea0ef"/>
    </linearGradient>
  </defs>
  <title>Icon-724-Space</title>
  <g id="aafd04ca-b423-45eb-ba79-06aae2e275ee">
    <g>
      <polygon points="8.991 0.245 1.5 4.632 1.5 13.386 8.991 17.755 16.5 13.386 16.5 4.632 8.991 0.245" fill="#50e6ff"/>
      <path id="a6513686-d3b7-48ec-add7-c2ce1aca0b53" d="M14.424,13.8H3.847a1.027,1.027,0,0,1-1.011-1.046h0V5.625a.921.921,0,0,1,.842-.993H14.352A1.083,1.083,0,0,1,15.363,5.7v7.039a.938.938,0,0,1-.776,1.065Z" fill="url(#f6c323fa-1a67-41c7-9219-e3d920812d88)"/>
      <g id="bae5363c-7559-44a4-90bf-d550d41c1cc4">
        <path d="M7.366,12.069l-2.834-2.8a.325.325,0,0,1,0-.433l2.889-2.69a.326.326,0,0,1,.4,0L8.07,6.4a.269.269,0,0,1,.015.382L8.07,6.8h0L5.85,8.856a.306.306,0,0,0,0,.415l2.184,2.238a.253.253,0,0,1,.023.357.239.239,0,0,1-.023.022h0l-.18.181a.29.29,0,0,1-.4,0Z" fill="#f2f2f2"/>
      </g>
      <g id="fd2bc70a-a416-4f0d-b1aa-680fe37c8f0b">
        <path d="M10.76,12.069l2.816-2.8a.289.289,0,0,0,.025-.408l-.025-.025-2.96-2.69a.271.271,0,0,0-.383-.014l-.015.014h0l-.2.217a.288.288,0,0,0,0,.4l2.238,2.094a.288.288,0,0,1,.026.407.319.319,0,0,1-.026.026l-2.148,2.2a.252.252,0,0,0-.022.357l.022.022h0l.163.162a.252.252,0,0,0,.327.143l.034-.016A.291.291,0,0,0,10.76,12.069Z" fill="#f2f2f2"/>
      </g>
    </g>
  </g>
</svg>
